<?xml version="1.0" encoding="UTF-8" standalone="no"?>
<svg
   width="320"
   height="320"
   viewBox="0 0 480 480"
   version="1.1"
   id="svg2"
   sodipodi:docname="background.svg"
   inkscape:version="1.4 (e7c3feb1, 2024-10-09)"
   xmlns:inkscape="http://www.inkscape.org/namespaces/inkscape"
   xmlns:sodipodi="http://sodipodi.sourceforge.net/DTD/sodipodi-0.dtd"
   xmlns="http://www.w3.org/2000/svg"
   xmlns:svg="http://www.w3.org/2000/svg">
  <defs
     id="defs2" />
  <sodipodi:namedview
     id="namedview2"
     pagecolor="#505050"
     bordercolor="#eeeeee"
     borderopacity="1"
     inkscape:showpageshadow="0"
     inkscape:pageopacity="0"
     inkscape:pagecheckerboard="0"
     inkscape:deskcolor="#505050"
     inkscape:zoom="1.40829"
     inkscape:cx="249.94851"
     inkscape:cy="192.43195"
     inkscape:window-width="1688"
     inkscape:window-height="1015"
     inkscape:window-x="12"
     inkscape:window-y="52"
     inkscape:window-maximized="0"
     inkscape:current-layer="svg2" />
  <!-- Icon from MingCute Icon by MingCute Design - https://github.com/Richard9394/MingCute/blob/main/LICENSE -->
  <g
     fill="none"
     fill-rule="evenodd"
     id="g2"
     style="fill:#ffffff;fill-opacity:0.15"
     transform="matrix(6,0,0,6.0000323,183.76931,146.205)">
    <path
       fill="rgba(255,255,255,0.15)"
       d="m 36.754037,27.961911 a 1,1 0 0 1 0.687,0.77 l 1.341,7.155 c 0.13,0.687 0.171,1.367 0.136,2.03 h 0.539999 a 1,1 0 1 1 0,2 h -0.893999 a 8.6,8.6 0 0 1 -0.551,1.363 l 1.07,0.856 a 1.000293,1.000293 0 1 1 -1.25,1.562 l -0.936,-0.749 a 8.43,8.43 0 0 1 -6.439,2.968 8.43,8.43 0 0 1 -6.44,-2.968 l -0.935,0.749 a 1.000293,1.000293 0 1 1 -1.25,-1.562 l 1.07,-0.856 a 8.4,8.4 0 0 1 -0.55,-1.363 h -0.895001 a 1,1 0 1 1 0,-2 h 0.540001 a 8.5,8.5 0 0 1 0.136,-2.03 l 1.341,-7.154 a 1,1 0 0 1 1.69,-0.523 l 2.414,2.414 a 1,1 0 0 0 0.707,0.293 h 4.344 a 1,1 0 0 0 0.707,-0.293 l 2.414,-2.414 a 1,1 0 0 1 1.003,-0.248 m -5.743,11.56 -0.553,0.277 -0.553,-0.276 a 1,1 0 1 0 -0.894,1.788 l 0.553,0.277 a 2,2 0 0 0 1.788,0 l 0.553,-0.277 a 1,1 0 1 0 -0.894,-1.788 z m -3.053,-4.605 a 1.5,1.5 0 1 0 0,3 1.5,1.5 0 0 0 0,-3 m 5,0 a 1.5,1.5 0 1 0 0,3 1.5,1.5 0 0 0 0,-3"
       id="path2"
       style="fill:#ffffff;fill-opacity:0.15" />
  </g>
  <g
     fill="none"
     fill-rule="evenodd"
     id="g1"
     style="fill:#ffffff;fill-opacity:0.15"
     transform="matrix(6.0000323,0,0,6.0000323,55.632384,63.617847)">
    <path
       fill="rgba(255,255,255,0.15)"
       d="m 18.296,3.045 a 1,1 0 0 1 0.687,0.77 l 1.341,7.155 c 0.13,0.687 0.171,1.367 0.136,2.03 H 21 a 1,1 0 1 1 0,2 h -0.894 a 8.6,8.6 0 0 1 -0.551,1.363 l 1.07,0.856 a 1.000293,1.000293 0 1 1 -1.25,1.562 L 18.439,18.032 A 8.43,8.43 0 0 1 12,21 8.43,8.43 0 0 1 5.56,18.032 l -0.935,0.749 a 1.000293,1.000293 0 1 1 -1.25,-1.562 l 1.07,-0.856 A 8.4,8.4 0 0 1 3.895,15 H 3 A 1,1 0 1 1 3,13 H 3.54 A 8.5,8.5 0 0 1 3.676,10.97 L 5.017,3.816 A 1,1 0 0 1 6.707,3.293 L 9.121,5.707 A 1,1 0 0 0 9.828,6 h 4.344 A 1,1 0 0 0 14.879,5.707 L 17.293,3.293 A 1,1 0 0 1 18.296,3.045 M 12.553,14.605 12,14.882 11.447,14.606 a 1,1 0 1 0 -0.894,1.788 l 0.553,0.277 a 2,2 0 0 0 1.788,0 l 0.553,-0.277 A 1,1 0 1 0 12.553,14.606 Z M 9.5,10 a 1.5,1.5 0 1 0 0,3 1.5,1.5 0 0 0 0,-3 m 5,0 a 1.5,1.5 0 1 0 0,3 1.5,1.5 0 0 0 0,-3"
       id="path1"
       style="fill:#ffffff;fill-opacity:0.15" />
  </g>
</svg>
